<svg width="181" height="23" viewBox="0 0 181 23" fill="none" xmlns="http://www.w3.org/2000/svg">
<path d="M103.233 19L101.982 15.166H96.78L95.529 19H93.171L97.653 5.68H101.127L105.609 19H103.233ZM97.401 13.24H101.352L99.372 7.192L97.401 13.24ZM115.859 5.68H118.118V19H115.688L109.361 9.289V19H107.093V5.68H109.523L115.859 15.4V5.68ZM124.217 19.126C123.071 19.126 121.916 19.057 120.752 18.919V5.95C121.352 5.824 122 5.725 122.696 5.653C123.392 5.575 124.064 5.536 124.712 5.536C127.07 5.536 128.84 6.094 130.021 7.21C131.21 8.326 131.804 10.036 131.804 12.34C131.804 13.918 131.525 15.208 130.967 16.21C130.409 17.206 129.569 17.941 128.447 18.415C127.331 18.889 125.921 19.126 124.217 19.126ZM124.811 17.155C125.843 17.155 126.689 16.993 127.349 16.669C128.015 16.339 128.513 15.82 128.843 15.112C129.173 14.404 129.338 13.477 129.338 12.331C129.338 11.197 129.173 10.276 128.843 9.568C128.513 8.854 128.018 8.332 127.358 8.002C126.704 7.666 125.87 7.498 124.856 7.498C124.346 7.498 123.779 7.549 123.155 7.651V17.074C123.617 17.128 124.169 17.155 124.811 17.155ZM141.891 19L138.228 13.879C138.144 13.885 138.018 13.888 137.85 13.888C137.49 13.888 136.974 13.87 136.302 13.834V19H133.935V5.95C135.249 5.668 136.563 5.527 137.877 5.527C139.743 5.527 141.135 5.866 142.053 6.544C142.977 7.222 143.439 8.269 143.439 9.685C143.445 10.657 143.199 11.467 142.701 12.115C142.209 12.763 141.495 13.234 140.559 13.528L144.528 19H141.891ZM136.302 11.998C136.872 12.052 137.403 12.079 137.895 12.079C139.029 12.079 139.86 11.89 140.388 11.512C140.916 11.128 141.18 10.522 141.18 9.694C141.18 8.866 140.931 8.263 140.433 7.885C139.941 7.507 139.164 7.318 138.102 7.318C137.502 7.318 136.902 7.372 136.302 7.48V11.998ZM154.227 19L152.976 15.166H147.774L146.523 19H144.165L148.647 5.68H152.121L156.603 19H154.227ZM148.395 13.24H152.346L150.366 7.192L148.395 13.24ZM161.552 19.126C160.406 19.126 159.251 19.057 158.087 18.919V5.95C158.687 5.824 159.335 5.725 160.031 5.653C160.727 5.575 161.399 5.536 162.047 5.536C164.405 5.536 166.175 6.094 167.357 7.21C168.545 8.326 169.139 10.036 169.139 12.34C169.139 13.918 168.86 15.208 168.302 16.21C167.744 17.206 166.904 17.941 165.782 18.415C164.666 18.889 163.256 19.126 161.552 19.126ZM162.146 17.155C163.178 17.155 164.024 16.993 164.684 16.669C165.35 16.339 165.848 15.82 166.178 15.112C166.508 14.404 166.673 13.477 166.673 12.331C166.673 11.197 166.508 10.276 166.178 9.568C165.848 8.854 165.353 8.332 164.693 8.002C164.039 7.666 163.205 7.498 162.191 7.498C161.681 7.498 161.114 7.549 160.49 7.651V17.074C160.952 17.128 161.504 17.155 162.146 17.155ZM173.647 17.065H180.325V19H171.271V5.68H180.235V7.615H173.647V11.215H179.335V13.15H173.647V17.065Z" fill="#7BA973"/>
<path d="M41.233 7.651H34.717V11.431H40.333V13.402H34.717V19H32.314V5.68H41.233V7.651ZM42.9488 19V5.68H45.3518V19H42.9488ZM47.9761 19V5.68H50.3791V16.993H56.6611V19H47.9761ZM58.066 19V5.68H60.469V19H58.066ZM63.0933 5.905C64.3833 5.653 65.6523 5.527 66.9003 5.527C68.8263 5.527 70.2633 5.911 71.2113 6.679C72.1653 7.441 72.6423 8.629 72.6423 10.243C72.6423 11.797 72.1683 12.973 71.2203 13.771C70.2723 14.563 68.8473 14.959 66.9453 14.959C66.6393 14.959 66.1563 14.941 65.4963 14.905V19H63.0933V5.905ZM66.9723 13.123C68.1303 13.123 68.9733 12.895 69.5013 12.439C70.0353 11.983 70.3023 11.257 70.3023 10.261C70.3023 9.253 70.0413 8.518 69.5193 8.056C69.0033 7.588 68.1993 7.354 67.1073 7.354C66.5493 7.354 66.0123 7.396 65.4963 7.48V13.033C65.9043 13.093 66.3963 13.123 66.9723 13.123ZM77.0533 17.065H83.7313V19H74.6773V5.68H83.6413V7.615H77.0533V11.215H82.7413V13.15H77.0533V17.065Z" fill="black"/>
<path d="M1.161 8.101L8.676 11.062V13.258L1.161 16.219V14.365L6.921 12.151L1.161 9.955V8.101ZM10.6362 20.881V19.009H19.6272V20.881H10.6362Z" fill="#070707"/>
</svg>
